<svg width="400" height="300" viewBox="0 0 400 300" fill="none" xmlns="http://www.w3.org/2000/svg">
  <defs>
    <linearGradient id="analyticsGrad" x1="0%" y1="0%" x2="100%" y2="100%">
      <stop offset="0%" style="stop-color:#667eea;stop-opacity:1" />
      <stop offset="100%" style="stop-color:#764ba2;stop-opacity:1" />
    </linearGradient>
    <linearGradient id="chartGrad" x1="0%" y1="0%" x2="100%" y2="100%">
      <stop offset="0%" style="stop-color:#4facfe;stop-opacity:1" />
      <stop offset="100%" style="stop-color:#00f2fe;stop-opacity:1" />
    </linearGradient>
  </defs>
  
  <!-- Background -->
  <rect width="400" height="300" fill="url(#analyticsGrad)" rx="10"/>
  
  <!-- Chart area background -->
  <rect x="20" y="20" width="360" height="200" fill="rgba(255,255,255,0.1)" rx="8"/>
  
  <!-- Chart bars -->
  <rect x="50" y="120" width="20" height="80" fill="#4facfe" rx="2"/>
  <rect x="80" y="100" width="20" height="100" fill="#00f2fe" rx="2"/>
  <rect x="110" y="80" width="20" height="120" fill="#667eea" rx="2"/>
  <rect x="140" y="90" width="20" height="110" fill="#764ba2" rx="2"/>
  <rect x="170" y="70" width="20" height="130" fill="#f093fb" rx="2"/>
  <rect x="200" y="110" width="20" height="90" fill="#f5576c" rx="2"/>
  <rect x="230" y="95" width="20" height="105" fill="#43e97b" rx="2"/>
  <rect x="260" y="85" width="20" height="115" fill="#38f9d7" rx="2"/>
  
  <!-- Chart line -->
  <path d="M50 180 Q110 120 170 100 Q230 80 290 90" stroke="#fff" stroke-width="3" fill="none"/>
  
  <!-- Data points -->
  <circle cx="50" cy="180" r="4" fill="#fff"/>
  <circle cx="110" cy="120" r="4" fill="#fff"/>
  <circle cx="170" cy="100" r="4" fill="#fff"/>
  <circle cx="230" cy="80" r="4" fill="#fff"/>
  <circle cx="290" cy="90" r="4" fill="#fff"/>
  
  <!-- Title -->
  <text x="200" y="250" font-family="Arial, sans-serif" font-size="18" fill="white" text-anchor="middle" font-weight="bold">Data Analytics Dashboard</text>
  <text x="200" y="270" font-family="Arial, sans-serif" font-size="12" fill="rgba(255,255,255,0.8)" text-anchor="middle">Interactive Visualizations & Reports</text>
  
  <!-- Icons -->
  <text x="320" y="40" font-size="24">📊</text>
  <text x="50" y="40" font-size="24">📈</text>
</svg>
